<?xml version="1.0" standalone="no"?>
<!DOCTYPE svg PUBLIC "-//W3C//DTD SVG 20010904//EN"
 "http://www.w3.org/TR/2001/REC-SVG-20010904/DTD/svg10.dtd">
<svg version="1.0" xmlns="http://www.w3.org/2000/svg"
 width="473.000000pt" height="148.000000pt" viewBox="0 0 473.000000 148.000000"
 preserveAspectRatio="xMidYMid meet">

<g transform="translate(0.000000,148.000000) scale(0.100000,-0.100000)"
fill="#ffffff" stroke="none">
<path d="M3345 1249 c-85 -45 -145 -135 -145 -216 0 -42 -1 -43 -34 -43 -59 0
-86 -49 -48 -83 10 -10 33 -17 50 -17 l32 0 0 -245 c0 -231 1 -245 19 -255 27
-14 47 -13 65 6 14 13 16 51 16 255 l0 239 53 0 c83 0 124 43 79 83 -13 12
-37 17 -76 17 l-58 0 7 37 c13 73 37 102 118 142 57 29 44 101 -18 101 -11 0
-38 -9 -60 -21z"/>
<path d="M306 1245 c-14 -15 -16 -61 -16 -421 0 -391 1 -405 20 -424 11 -11
27 -20 35 -20 8 0 24 9 35 20 19 19 20 33 20 357 l0 337 166 -235 c92 -129
172 -237 178 -242 31 -20 55 4 183 183 72 102 132 195 132 207 1 28 -41 58
-64 46 -8 -5 -61 -74 -118 -153 -56 -80 -106 -145 -110 -145 -4 0 -87 113
-185 250 l-177 250 -41 3 c-28 2 -47 -2 -58 -13z"/>
<path d="M1149 1243 c-11 -13 -15 -95 -17 -414 l-3 -397 25 -29 c24 -27 26
-27 53 -13 l28 16 3 413 c1 297 -1 418 -9 427 -16 19 -64 17 -80 -3z"/>
<path d="M2867 1242 c-38 -42 -7 -122 47 -122 63 0 99 77 56 120 -26 26 -81
26 -103 2z"/>
<path d="M1610 1039 c-66 -27 -146 -103 -180 -174 -22 -43 -25 -64 -25 -150 0
-84 4 -107 23 -146 37 -75 87 -125 160 -161 59 -29 76 -33 147 -33 61 0 91 6
127 22 66 30 143 105 175 172 23 48 27 69 28 146 0 80 -3 97 -29 149 -36 73
-95 134 -161 166 -71 34 -190 38 -265 9z m215 -104 c74 -30 134 -124 135 -210
0 -72 -15 -115 -57 -165 -155 -181 -443 -28 -392 209 31 145 177 222 314 166z"/>
<path d="M4420 1044 c-97 -30 -184 -123 -215 -228 -11 -36 -15 -100 -15 -227
0 -172 1 -178 22 -193 30 -21 44 -20 68 4 18 18 20 33 20 198 0 152 3 183 19
217 28 58 66 94 136 126 78 35 93 61 55 99 -23 23 -30 24 -90 4z"/>
<path d="M2167 1032 c-10 -10 -17 -25 -17 -34 0 -14 220 -530 254 -597 21 -39
67 -44 90 -9 26 42 256 585 256 606 0 43 -49 66 -82 40 -9 -7 -61 -119 -116
-247 l-100 -235 -15 35 c-194 451 -198 459 -237 459 -9 0 -24 -8 -33 -18z"/>
<path d="M3527 1032 c-10 -10 -17 -24 -17 -32 0 -7 54 -136 120 -287 l120
-275 -46 -109 c-44 -105 -45 -110 -30 -134 16 -25 49 -32 73 -17 12 8 338 762
349 809 14 52 -61 85 -90 40 -8 -12 -54 -114 -101 -227 -48 -113 -90 -208 -94
-212 -3 -4 -49 90 -101 210 -52 119 -102 224 -112 234 -23 23 -50 23 -71 0z"/>
<path d="M2886 1024 c-14 -13 -16 -56 -16 -314 0 -258 2 -301 16 -314 19 -20
34 -20 62 0 22 15 22 16 22 314 0 298 0 299 -22 314 -28 20 -43 20 -62 0z"/>
</g>
</svg>
